<svg xmlns="http://www.w3.org/2000/svg" viewBox="0 0 72 72" width="64px" height="64px">
  <path fill="#bdbdbd" stroke-width="2" d="M 36 12 C 22.745 12 12 22.745 12 36 C 12 49.255 22.745 60 36 60 C 49.255 60 60 49.255 60 36 C 60 22.745 49.255 12 36 12 z M 36 20 C 44.837 20 52 27.163 52 36 C 52 38.966176 51.177933 41.733829 49.771484 44.115234 L 27.884766 22.228516 C 30.266171 20.822067 33.033824 20 36 20 z M 22.228516 27.886719 L 44.113281 49.771484 C 41.732196 51.177408 38.965579 52 36 52 C 27.163 52 20 44.837 20 36 C 20 33.034421 20.822592 30.267804 22.228516 27.886719 z"/>
</svg>