<?xml version="1.0" encoding="UTF-8"?>
<svg id="Layer_1" xmlns="http://www.w3.org/2000/svg" version="1.1" viewBox="0 0 64 64">
  <!-- Generator: Adobe Illustrator 29.8.1, SVG Export Plug-In . SVG Version: 2.1.1 Build 2)  -->
  <defs>
    <style>
      .st0 {
        fill: #bdbdbd;
      }
    </style>
  </defs>
  <path class="st0" d="M32.21,10.66c-3.5,0-7.01.94-9.91,2.44-2,1-2.6,3.6-1.2,5.3,1.1,1.4,2.9,1.8,4.4,1,2-1,4.2-1.6,6.6-1.6,7.3,0,13.2,5.4,14.1,12.4h-2.7c-1.3,0-2.1,1.5-1.3,2.5l6.4,9.2c.6.9,2,.9,2.7,0l6.4-9.2c.7-1.1,0-2.5-1.3-2.5h-2.9c-.9-10.9-10.09-19.54-21.29-19.54ZM14.14,21.33c-.5,0-.94.17-1.24.67l-6.4,9.2c-.7,1.1,0,2.5,1.3,2.5h2.9c.9,10.9,10.1,19.6,21.3,19.6,3.24,0,6.8-.9,9.7-2.4,2-1,2.6-3.6,1.2-5.3-1.1-1.4-2.9-1.8-4.4-1-2,1-4.2,1.6-6.6,1.6-7.3,0-13.2-5.4-14.1-12.4h2.7c1.3,0,2.1-1.5,1.3-2.5l-6.4-9.2c-.3-.5-.76-.77-1.26-.77Z"/>
</svg>