<?xml version="1.0" encoding="UTF-8"?>
<svg id="Layer_1" xmlns="http://www.w3.org/2000/svg" version="1.1" viewBox="0 0 64 64">
  <!-- Generator: Adobe Illustrator 29.8.1, SVG Export Plug-In . SVG Version: 2.1.1 Build 2)  -->
  <defs>
    <style>
      .st0 {
        fill: #bdbdbd;
      }
    </style>
  </defs>
  <path class="st0" d="M16.89,13.33c-.91,0-1.82.35-2.51,1.04-1.39,1.39-1.39,3.64,0,5.03l12.6,12.6-12.6,12.6c-1.39,1.39-1.39,3.64,0,5.03.69.69,1.6,1.04,2.51,1.04s1.82-.35,2.51-1.04l12.6-12.6,12.6,12.6c1.39,1.39,3.64,1.39,5.03,0,1.39-1.39,1.39-3.64,0-5.03l-12.6-12.6,12.6-12.6c1.39-1.39,1.39-3.64,0-5.03-1.39-1.39-3.64-1.39-5.03,0l-12.6,12.6-12.6-12.6c-.69-.69-1.6-1.04-2.51-1.04Z"/>
</svg>