<?xml version="1.0" encoding="UTF-8"?>
<svg id="Layer_1" xmlns="http://www.w3.org/2000/svg" version="1.1" viewBox="0 0 64 64">
  <!-- Generator: Adobe Illustrator 29.8.1, SVG Export Plug-In . SVG Version: 2.1.1 Build 2)  -->
  <defs>
    <style>
      .st0 {
        fill: #bdbdbd;
      }
    </style>
  </defs>
  <path class="st0" d="M54.65,33.91c.06-.09.1-.18.15-.28.05-.1.11-.19.15-.29,0-.01.01-.03.02-.04.04-.11.07-.22.1-.33.03-.1.07-.19.09-.29,0-.01,0-.02,0-.04.02-.11.02-.23.03-.34,0-.1.03-.2.03-.31,0,0,0,0,0,0,0,0,0-.01,0-.02,0-.11-.02-.22-.03-.33-.01-.11-.01-.22-.03-.33,0-.04-.02-.07-.03-.11-.02-.07-.05-.14-.07-.22-.03-.11-.06-.22-.1-.33,0,0,0-.02-.01-.03-.04-.1-.1-.19-.16-.29-.05-.1-.09-.19-.16-.29,0,0,0-.02-.01-.02-.02-.03-.04-.05-.06-.07-.07-.1-.15-.19-.23-.27-.04-.05-.08-.11-.13-.16l-14.41-14.55c-1.36-1.37-3.58-1.38-4.95-.02-1.37,1.36-1.38,3.58-.02,4.95l8.51,8.59H12.55c-1.93,0-3.5,1.57-3.5,3.5s1.57,3.5,3.5,3.5h30.86l-8.6,8.81c-1.35,1.38-1.32,3.6.06,4.95.68.67,1.56,1,2.45,1s1.82-.35,2.5-1.05l14.41-14.75c.05-.06.09-.12.14-.18.09-.1.18-.2.26-.32,0-.01.02-.03.02-.04Z"/>
</svg>