<?xml version="1.0" encoding="UTF-8"?>
<svg id="Layer_1" xmlns="http://www.w3.org/2000/svg" version="1.1" viewBox="0 0 64 64">
  <!-- Generator: Adobe Illustrator 29.8.1, SVG Export Plug-In . SVG Version: 2.1.1 Build 2)  -->
  <defs>
    <style>
      .st0 {
        fill: #bdbdbd;
      }
    </style>
  </defs>
  <path class="st0" d="M27.56,9.78c-9.8,0-17.78,7.98-17.78,17.78s7.98,17.78,17.78,17.78c3.53,0,6.82-1.05,9.59-2.83l11.5,11.5c1.48,1.48,3.88,1.48,5.36,0,1.48-1.48,1.48-3.88,0-5.36l-11.5-11.5c1.78-2.77,2.83-6.06,2.83-9.59,0-9.8-7.98-17.78-17.78-17.78ZM27.56,16.89c5.88,0,10.67,4.79,10.67,10.67s-4.79,10.67-10.67,10.67-10.67-4.79-10.67-10.67,4.79-10.67,10.67-10.67Z"/>
</svg>