<?xml version="1.0" encoding="UTF-8"?>
<svg id="Layer_1" xmlns="http://www.w3.org/2000/svg" version="1.1" viewBox="0 0 64 64">
  <!-- Generator: Adobe Illustrator 29.1.0, SVG Export Plug-In . SVG Version: 2.1.0 Build 142)  -->
  <defs>
    <style>
      .st0 {
        fill: none;
      }

      .st0, .st1 {
        stroke: #3a3a3a;
        stroke-miterlimit: 10;
        stroke-width: 4px;
      }

      .st1 {
        fill: #bdbdbd;
      }
    </style>
  </defs>
  <path class="st1" d="M14.3,18.8h35.5v33.9c0,2-1.6,3.6-3.6,3.6h-28.3c-2,0-3.6-1.6-3.6-3.6V18.8h0Z"/>
  <path class="st1" d="M43.4,14v-4.2c0-1.3-1.1-2.4-2.4-2.4h-18c-1.3,0-2.4,1.1-2.4,2.4v4.2h-7.6c-1.3,0-2.4,1.1-2.4,2.4v2.3c0,1.3,1.1,2.4,2.4,2.4h38c1.3,0,2.4-1.1,2.4-2.4v-2.3c0-1.3-1.1-2.4-2.4-2.4h-7.6Z"/>
  <g>
    <line class="st0" x1="27" y1="25.7" x2="27" y2="51"/>
    <line class="st0" x1="37" y1="25.7" x2="37" y2="51"/>
  </g>
  <line class="st0" x1="25.7" y1="14" x2="38.3" y2="14"/>
</svg>