<?xml version="1.0" encoding="UTF-8"?>
<svg id="Layer_1" xmlns="http://www.w3.org/2000/svg" version="1.1" viewBox="0 0 64 64">
  <!-- Generator: Adobe Illustrator 29.1.0, SVG Export Plug-In . SVG Version: 2.1.0 Build 142)  -->
  <defs>
    <style>
      .st0 {
        fill: #bdbdbd;
        isolation: isolate;
      }
    </style>
  </defs>
  <path class="st0" d="M41.3,12.5c-3.2,0-7,.6-9.3,2.8l-.5.5c-3.6,3.6-3.5,9.3,0,12.9l4,4c1.7,1.7,4.1,2.7,6.5,2.7s4.7-1,6.4-2.7l.5-.5c2.7-2.7,2.8-8.4,2.8-10.8s0-.7-.4-1c-.2-.2-.5-.3-.7-.3-.5,0-.7.3-.9.4l-5.1,5.1h-.8c-1.7,0-4.1-.4-4.7-.6-.4-.9-.7-4.7-.5-5.4.8-.8,5.1-5.1,5.1-5.2.2-.2.6-.7.4-1.3,0-.3-.4-.6-1.2-.6h-1.6,0ZM29.1,28.1l-15,13.6c-1.6,1.6-3,5.2,0,8.2,1.4,1.4,2.8,1.7,4,1.7s.5,0,.8,0c1.5-.2,2.7-1,3.4-1.7l13.6-15-1.3-1-4.6-4.6s-1-1.3-1-1.3Z"/>
</svg>