<?xml version="1.0" encoding="UTF-8"?>
<svg id="Layer_1" xmlns="http://www.w3.org/2000/svg" version="1.1" viewBox="0 0 64 64">
  <!-- Generator: Adobe Illustrator 29.1.0, SVG Export Plug-In . SVG Version: 2.1.0 Build 142)  -->
  <defs>
    <style>
      .st0 {
        fill: #bdbdbd;
        isolation: isolate;
      }
    </style>
  </defs>
  <path class="st0" d="M55.7,8.1c-.2,0-.5.1-.6.3l-6.4,6.4h-.1c0,.1-22.7,22.9-22.7,22.9-.4.4-.4.9,0,1.5.3.4.9.4,1.5.1l15.9-11.7c.1,0,.3-.1.4,0,.1,0,.2.1.2.2,1.9,4.6.8,9.6-2.6,13.2-3,3-7.2,4.1-11.5,3h-.7l-5.5,2.9c-.3.2-.5.5-.5.8s.2.7.5.9c3,1.7,6.3,2.5,9.4,2.5,4.9,0,9.6-1.9,13.3-5.5s6.5-11.2,5.1-17.6h0c-1.9-8,.4-11.2,5.3-17.9l.3-.4c.3-.4.2-1-.2-1.5s-.4-.2-.7-.2h-.3ZM33,13.4c-5,0-10,1.9-13.7,5.5-5.3,5.3-6.9,13.6-4.1,20.5,1.8,4.4-1,7.4-4.5,10.9-1.1,1.3-2.4,2.5-3.4,3.9-.3.4-.2,1,.1,1.5.2.2.4.2.6.2s.5,0,.6-.2l15.1-13.5c.1-.1.3-.2.3-.4.1-.4,0-.8-.2-1.1-2.8-2.7-3.4-5.7-3.4-7.9,0-3.2,1.3-6.5,3.6-8.8s6.6-3.9,10.3-3.3h.6l6-3.1c.3-.2.5-.5.5-.9s-.2-.7-.5-.9c-.4-.2-.8-.4-1.3-.5-2.2-.8-4.5-1.5-6.8-1.5h.2Z"/>
</svg>