<?xml version="1.0" encoding="UTF-8"?>
<svg id="Layer_1" xmlns="http://www.w3.org/2000/svg" version="1.1" viewBox="0 0 64 64">
  <!-- Generator: Adobe Illustrator 29.1.0, SVG Export Plug-In . SVG Version: 2.1.0 Build 142)  -->
  <defs>
    <style>
      .st0 {
        isolation: isolate;
      }

      .st1 {
        fill: #bdbdbd;
        fill-rule: evenodd;
      }
    </style>
  </defs>
  <g class="st0">
    <path class="st1" d="M41,14l13.4,7.4v.2l-13.5,7.3v-3.8h-1.5c-2,0-3,0-4.2.2-2,.3-3.7,1-5.8,2.4l-4,2.7c-.6.4-.9.7-1.3.8l-.9.6-.7.5.7.5,1,.7c.9.6,2.1,1.5,5.1,3.4,2.1,1.4,3.8,2.1,5.8,2.4h.6c1.3.3,2.5.3,5.2.2v-3.9l13.4,7.4v.2l-13.5,7.3v-3.4h-1.2c-2.5,0-3.9,0-5.8-.3-3.1-.6-6-1.7-9.1-3.7l-4-2.7c-.5-.3-.9-.7-1.4-.9l-.9-.6c-.5-.3-.9-.6-1.4-.7-1.7-.9-6-2-7-2v-7.6h.3c1,0,5.4-1.1,7-2l1.9-1,.8-.5c.8-.6,2-1.3,5.1-3.4,3-2,5.9-3.2,9.1-3.7,2.1-.4,3.6-.4,7.1-.3v-3.5h-.2l-.2-.2Z"/>
  </g>
</svg>